<svg width="18" height="18" viewBox="0 0 18 18" fill="none" xmlns="http://www.w3.org/2000/svg">
<path d="M12.6268 1.90205C13.6109 1.90488 14.5539 2.2826 15.2498 2.95271C15.9456 3.62282 16.3379 4.53088 16.3408 5.47855V12.6308C16.3379 13.5785 15.9456 14.4865 15.2498 15.1566C14.5539 15.8267 13.6109 16.2045 12.6268 16.2073H5.19944C4.21532 16.2045 3.27234 15.8267 2.57645 15.1566C1.88057 14.4865 1.48832 13.5785 1.48539 12.6308V5.47855C1.48832 4.53088 1.88057 3.62282 2.57645 2.95271C3.27234 2.2826 4.21532 1.90488 5.19944 1.90205H12.6268ZM12.6268 0.47168H5.19944C2.33969 0.47168 0 2.72471 0 5.47855V12.6308C0 15.3846 2.33969 17.6377 5.19944 17.6377H12.6268C15.4865 17.6377 17.8262 15.3846 17.8262 12.6308V5.47855C17.8262 2.72471 15.4865 0.47168 12.6268 0.47168Z" fill="white"/>
<path d="M13.7409 5.47876C13.5206 5.47876 13.3052 5.41583 13.1219 5.29794C12.9387 5.18006 12.7959 5.0125 12.7116 4.81645C12.6273 4.62041 12.6052 4.40469 12.6482 4.19657C12.6912 3.98846 12.7973 3.79729 12.9531 3.64725C13.1089 3.4972 13.3074 3.39502 13.5236 3.35362C13.7397 3.31223 13.9637 3.33347 14.1673 3.41468C14.3709 3.49588 14.5449 3.63339 14.6673 3.80983C14.7897 3.98626 14.8551 4.19369 14.8551 4.40588C14.8554 4.54686 14.8268 4.68651 14.7709 4.81681C14.715 4.94712 14.633 5.06551 14.5294 5.16519C14.4259 5.26488 14.303 5.3439 14.1677 5.39771C14.0323 5.45152 13.8873 5.47906 13.7409 5.47876ZM8.91313 6.19375C9.50077 6.19375 10.0752 6.36155 10.5638 6.67594C11.0524 6.99032 11.4332 7.43717 11.6581 7.95997C11.883 8.48277 11.9418 9.05805 11.8272 9.61305C11.7126 10.1681 11.4296 10.6779 11.0141 11.078C10.5985 11.4781 10.0691 11.7506 9.49277 11.861C8.91642 11.9714 8.31902 11.9148 7.77611 11.6982C7.2332 11.4817 6.76917 11.1149 6.44269 10.6444C6.11622 10.1739 5.94196 9.62075 5.94196 9.05488C5.9428 8.29631 6.25611 7.56904 6.81313 7.03265C7.37014 6.49626 8.12538 6.19456 8.91313 6.19375ZM8.91313 4.76338C8.0317 4.76338 7.17008 5.01507 6.4372 5.48663C5.70432 5.95818 5.13312 6.62842 4.79581 7.41259C4.4585 8.19676 4.37025 9.05964 4.54221 9.89211C4.71416 10.7246 5.13861 11.4892 5.76187 12.0894C6.38513 12.6896 7.17921 13.0983 8.0437 13.2639C8.90818 13.4295 9.80425 13.3445 10.6186 13.0197C11.4329 12.6949 12.1289 12.1448 12.6186 11.4391C13.1083 10.7334 13.3697 9.90365 13.3697 9.05488C13.3697 7.9167 12.9002 6.82514 12.0644 6.02033C11.2286 5.21552 10.0951 4.76338 8.91313 4.76338Z" fill="white"/>
</svg>
