<?xml version="1.0" encoding="UTF-8" standalone="no"?>
<!DOCTYPE svg PUBLIC "-//W3C//DTD SVG 1.1//EN" "http://www.w3.org/Graphics/SVG/1.1/DTD/svg11.dtd">
<svg xmlns="http://www.w3.org/2000/svg" xmlns:xlink="http://www.w3.org/1999/xlink" version="1.1" width="1653.5432pt" height="2338.5826pt" viewBox="0 0 1653.5432 2338.5826">
<g enable-background="new">
<g id="Layer-1" data-name="Layer 1">
<path transform="matrix(2.7777777,0,0,-2.7777777,0,2338.5826)" d="M 426.295 491.936 C 426.295 419.07 367.7998 360 295.6428 360 C 223.4857 360 164.9908 419.07 164.9908 491.936 C 164.9908 564.802 223.4857 623.8721 295.6428 623.8721 C 367.7998 623.8721 426.295 564.802 426.295 491.936 " fill="#62734a"/>
<path transform="matrix(2.7777777,0,0,-2.7777777,0,2338.5826)" d="M 325.9721 551.0015 L 318.8492 551.0015 L 258.5171 551.0015 C 257.1219 551.0015 255.9932 549.8603 255.9932 548.4523 C 255.9932 547.0444 257.1219 545.9023 258.5171 545.9023 L 302.6492 545.9023 L 302.6492 491.7285 L 281.8451 491.7285 C 280.4511 491.7285 279.3212 490.5873 279.3212 489.1793 C 279.3212 489.0713 279.328 488.9645 279.341 488.8593 L 279.341 436.9175 L 261.176 436.9175 L 261.176 520.9784 C 261.176 522.4235 260.0161 523.5953 258.584 523.5953 C 257.1531 523.5953 255.9932 522.4235 255.9932 520.9784 L 255.9932 434.4364 C 255.9932 434.4245 255.9932 434.4134 255.9932 434.4015 C 255.9932 434.3905 255.9932 434.3786 255.9932 434.3675 C 255.9932 432.9595 257.1219 431.8183 258.5171 431.8183 L 258.584 431.8183 L 281.7609 431.8183 C 281.8179 431.8143 281.8752 431.8123 281.933 431.8123 C 282.073 431.8123 282.21 431.8234 282.344 431.8455 C 283.235 431.9753 283.9751 432.5743 284.311 433.3876 C 284.4482 433.7065 284.525 434.0594 284.525 434.4296 L 284.525 486.6296 L 302.6492 486.6296 L 302.6492 434.4364 C 302.6492 432.9904 303.8091 431.8183 305.2412 431.8183 C 306.6721 431.8183 307.8332 432.9904 307.8332 434.4364 L 307.8332 489.1793 L 307.8332 545.9023 L 316.2572 545.9023 L 316.2572 434.4364 C 316.2572 432.9904 317.4171 431.8183 318.8492 431.8183 C 320.2801 431.8183 321.4412 432.9904 321.4412 434.4364 L 321.4412 545.9023 L 325.9721 545.9023 C 327.367 545.9023 328.4972 547.0444 328.4972 548.4523 C 328.4972 549.8603 327.367 551.0015 325.9721 551.0015 " fill="#c19111"/>
<path transform="matrix(2.7777777,0,0,-2.7777777,0,2338.5826)" d="M 218.408 469.4003 L 206.744 469.4003 L 206.744 548.4314 C 206.744 549.8393 205.5832 550.9803 204.152 550.9803 C 202.7203 550.9803 201.56 549.8393 201.56 548.4314 L 201.56 466.8514 C 201.56 465.4434 202.7203 464.3014 204.152 464.3014 L 218.408 464.3014 C 219.8401 464.3014 221 465.4434 221 466.8514 C 221 468.2594 219.8401 469.4003 218.408 469.4003 " fill="#ffffff"/>
<path transform="matrix(2.7777777,0,0,-2.7777777,0,2338.5826)" d="M 383.9066 447.3714 L 383.8476 447.3714 C 382.4325 447.3714 381.2848 448.5186 381.2848 449.9345 L 381.2848 515.9106 C 381.2848 517.3257 382.4325 518.4726 383.8476 518.4726 L 383.9066 518.4726 C 385.3227 518.4726 386.4696 517.3257 386.4696 515.9106 L 386.4696 449.9345 C 386.4696 448.5186 385.3227 447.3714 383.9066 447.3714 " fill="#ffffff"/>
<path transform="matrix(2.7777777,0,0,-2.7777777,0,2338.5826)" d="M 381.2851 434.3856 L 381.2851 439.7108 C 381.2851 441.1259 382.432 442.2728 383.8482 442.2728 L 383.9071 442.2728 C 385.3222 442.2728 386.4691 441.1259 386.4691 439.7108 L 386.4691 434.3856 C 386.4691 432.9697 385.3222 431.8228 383.9071 431.8228 L 383.8482 431.8228 C 382.432 431.8228 381.2851 432.9697 381.2851 434.3856 " fill="#ffffff"/>
<path transform="matrix(2.7777777,0,0,-2.7777777,0,2338.5826)" d="M 376.1011 475.7689 L 376.1011 475.7689 L 376.1011 515.8551 C 376.1011 517.301 374.9409 518.4731 373.5091 518.4731 C 372.0779 518.4731 370.9171 517.301 370.9171 515.8551 L 370.9171 478.3181 L 361.8451 478.3181 L 361.8451 515.8551 C 361.8451 517.301 360.684 518.4731 359.2531 518.4731 C 357.8219 518.4731 356.6611 517.301 356.6611 515.8551 L 356.6611 434.4401 C 356.6611 432.995 357.8219 431.8231 359.2531 431.8231 C 360.684 431.8231 361.8451 432.995 361.8451 434.4401 L 361.8451 473.22 L 370.9171 473.22 L 370.9171 434.4401 C 370.9171 432.995 372.0779 431.8231 373.5091 431.8231 C 374.9409 431.8231 376.1011 432.995 376.1011 434.4401 Z " fill="#ffffff"/>
<path transform="matrix(2.7777777,0,0,-2.7777777,0,2338.5826)" d="M 243.032 545.8819 C 244.4641 545.8819 245.624 547.024 245.624 548.4308 C 245.624 549.8399 244.4641 550.9809 243.032 550.9809 L 228.776 550.9809 C 227.3443 550.9809 226.184 549.8399 226.184 548.4308 L 226.184 466.8508 C 226.184 465.4437 227.3443 464.3019 228.776 464.3019 L 243.032 464.3019 C 244.4641 464.3019 245.624 465.4437 245.624 466.8508 C 245.624 468.2588 244.4641 469.4009 243.032 469.4009 L 231.368 469.4009 L 231.368 505.0919 L 243.032 505.0919 C 244.4641 505.0919 245.624 506.2337 245.624 507.6408 C 245.624 509.0488 244.4641 510.1909 243.032 510.1909 L 231.368 510.1909 L 231.368 545.8819 Z " fill="#ffffff"/>
<path transform="matrix(2.7777777,0,0,-2.7777777,0,2338.5826)" d="M 337.2211 477.6953 L 337.2211 500.4592 L 337.2211 508.9141 C 337.2211 511.3772 339.2521 513.3742 341.7571 513.3742 C 344.262 513.3742 346.2931 511.3772 346.2931 508.9141 L 346.2931 500.4592 L 346.2931 477.6953 Z M 341.7571 518.4711 C 336.388 518.4711 332.0371 514.1923 332.0371 508.9141 L 332.0371 475.1473 L 332.0371 434.3712 C 332.0371 432.9643 333.197 431.8223 334.6291 431.8223 C 336.06 431.8223 337.2211 432.9643 337.2211 434.3712 L 337.2211 472.5984 L 346.2931 472.5984 L 346.2931 434.3712 C 346.2931 432.9643 347.453 431.8223 348.8851 431.8223 C 350.316 431.8223 351.4771 432.9643 351.4771 434.3712 L 351.4771 475.1473 L 351.4771 508.9141 C 351.4771 514.1923 347.125 518.4711 341.7571 518.4711 " fill="#ffffff"/>
<path transform="matrix(2.7777777,0,0,-2.7777777,0,2338.5826)" d="M 206.555 420.1897 L 207.3492 420.1897 L 210.8837 411.986 L 209.7252 411.986 L 208.6716 414.4031 L 205.3145 414.4031 L 204.3201 411.986 L 203.1616 411.986 Z M 208.209 415.4437 L 206.9391 418.3965 L 205.7576 415.4437 Z M 219.9679 420.1424 L 221.0936 420.1424 L 217.7558 411.952 L 217.5032 411.952 L 214.0999 420.1424 L 215.2355 420.1424 L 217.6115 414.4167 Z M 221.9632 420.1424 L 226.4428 420.1424 L 226.4428 419.1049 L 223.0954 419.1049 L 223.0954 416.6167 L 226.328 416.6167 L 226.328 415.5727 L 223.0954 415.5727 L 223.0954 413.0368 L 226.548 413.0368 L 226.548 411.9962 L 221.9632 411.9962 Z M 234.0272 420.1424 L 235.1038 420.1424 L 235.1038 411.986 L 234.129 411.986 L 228.8486 418.2642 L 228.8486 411.986 L 227.7884 411.986 L 227.7884 420.1424 L 228.704 420.1424 L 234.0272 413.8132 Z M 236.1178 420.1557 L 242.7171 420.1557 L 242.7171 419.1151 L 239.9641 419.1151 L 239.9641 411.986 L 238.8251 411.986 L 238.8251 419.1151 L 236.1178 419.1151 Z M 249.281 420.1424 L 250.4166 420.1424 L 250.4166 415.5114 C 250.4166 414.8844 250.3738 414.4133 250.285 414.0947 C 250.1966 413.7758 250.0852 413.5116 249.9571 413.2979 C 249.8258 413.0844 249.6651 412.8945 249.4777 412.7284 C 248.851 412.1691 248.0338 411.891 247.0232 411.891 C 245.9959 411.891 245.1688 412.1691 244.5486 412.7216 C 244.3615 412.8945 244.2008 413.0844 244.0729 413.2979 C 243.9414 413.5116 243.8334 413.769 243.7481 414.0777 C 243.6625 414.3861 243.6197 414.8674 243.6197 415.525 L 243.6197 420.1424 L 244.7586 420.1424 L 244.7586 415.5114 C 244.7586 414.7455 244.8439 414.2132 245.0146 413.915 C 245.1821 413.6131 245.4415 413.3724 245.789 413.1927 C 246.1337 413.0133 246.5439 412.9217 247.0133 412.9217 C 247.6828 412.9217 248.2277 413.1014 248.6509 413.464 C 248.8742 413.6573 249.035 413.8877 249.133 414.1522 C 249.2317 414.4167 249.281 414.8708 249.281 415.5114 Z M 252.0181 411.986 L 252.0181 420.1424 L 253.9936 420.1424 C 254.7944 420.1424 255.4311 419.9389 255.9005 419.5321 C 256.3696 419.1219 256.6029 418.5694 256.6029 417.871 C 256.6029 417.3965 256.4878 416.9863 256.2582 416.6405 C 256.0252 416.2946 255.6969 416.037 255.2669 415.8641 C 255.5198 415.6911 255.7658 415.4573 256.0088 415.1625 C 256.2483 414.8674 256.5896 414.3521 257.0261 413.6165 C 257.3019 413.1522 257.5216 412.8029 257.6857 412.5691 L 258.1058 411.986 L 256.7605 411.986 L 256.4158 412.5217 C 256.4059 412.5419 256.3826 412.5759 256.3469 412.6232 L 256.127 412.9418 L 255.7757 413.5385 L 255.3985 414.176 C 255.1652 414.5117 254.9486 414.7758 254.7553 414.976 C 254.5614 415.1761 254.3842 415.3184 254.23 415.4066 C 254.0724 415.4913 253.8099 415.5352 253.4423 415.5352 L 253.1472 415.5352 L 253.1472 411.986 Z M 253.4848 419.1525 L 253.1472 419.1525 L 253.1472 416.5761 L 253.5769 416.5761 C 254.1512 416.5761 254.5449 416.6269 254.7584 416.7286 C 254.9716 416.827 255.1357 416.9795 255.2539 417.1861 C 255.3721 417.3897 255.4311 417.6235 255.4311 417.8846 C 255.4311 418.1389 255.3656 418.3727 255.2343 418.5828 C 255.0997 418.7897 254.916 418.9388 254.6765 419.0236 C 254.4369 419.1083 254.0398 419.1525 253.4848 419.1525 Z M 258.9755 420.1424 L 263.4551 420.1424 L 263.4551 419.1049 L 260.1077 419.1049 L 260.1077 416.6167 L 263.3403 416.6167 L 263.3403 415.5727 L 260.1077 415.5727 L 260.1077 413.0368 L 263.5603 413.0368 L 263.5603 411.9962 L 258.9755 411.9962 Z M 270.6557 411.986 L 267.9809 411.986 L 267.9809 420.1424 L 270.0516 420.1424 C 270.7047 420.1424 271.2135 420.0508 271.5778 419.8711 C 271.942 419.6914 272.2209 419.4405 272.4146 419.1253 C 272.6082 418.8067 272.7034 418.4405 272.7034 418.0235 C 272.7034 417.2202 272.3029 416.6473 271.499 416.3014 C 272.0733 416.1895 272.5328 415.942 272.874 415.5659 C 273.2153 415.1894 273.386 414.7353 273.386 414.2098 C 273.386 413.7928 273.2842 413.4234 273.0776 413.098 C 272.8706 412.7692 272.5656 412.5047 272.1651 412.2978 C 271.7614 412.0911 271.2594 411.986 270.6557 411.986 Z M 270.0845 419.1049 L 269.113 419.1049 L 269.113 416.6507 L 269.8648 416.6507 C 270.4652 416.6507 270.8952 416.7692 271.1511 417.0064 C 271.404 417.244 271.5318 417.5524 271.5318 417.9319 C 271.5318 418.7151 271.0494 419.1049 270.0845 419.1049 Z M 270.1698 415.6132 L 269.113 415.6132 L 269.113 413.0266 L 270.2256 413.0266 C 270.8459 413.0266 271.266 413.0776 271.4856 413.176 C 271.7059 413.274 271.8797 413.4268 272.0143 413.6369 C 272.1487 413.8472 272.2144 414.0743 272.2144 414.3149 C 272.2144 414.5658 272.1455 414.7929 272.0044 414.9998 C 271.8632 415.2064 271.6631 415.3589 271.404 415.4607 C 271.1446 415.5625 270.7311 415.6132 270.1698 415.6132 Z M 279.254 420.1424 L 280.6226 420.1424 L 277.7049 416.3014 L 277.7049 411.986 L 276.5466 411.986 L 276.5466 416.3014 L 273.6289 420.1424 L 274.9975 420.1424 L 277.111 417.3287 Z M 286.6643 415.4066 L 285.8046 415.9454 C 285.2663 416.2844 284.8825 416.6201 284.656 416.9489 C 284.4295 417.2777 284.3147 417.6541 284.3147 418.081 C 284.3147 418.7254 284.531 419.2472 284.961 419.6475 C 285.391 420.0474 285.9523 420.2473 286.6414 420.2473 C 287.301 420.2473 287.9082 420.0576 288.4561 419.6778 L 288.4561 418.3523 C 287.8886 418.915 287.2746 419.1965 286.6184 419.1965 C 286.2507 419.1965 285.9491 419.1083 285.7127 418.932 C 285.4732 418.7557 285.355 418.5286 285.355 418.2506 C 285.355 418.0065 285.4403 417.776 285.6141 417.5626 C 285.7881 417.3489 286.0671 417.1252 286.4574 416.8913 L 287.3208 416.3658 C 288.2857 415.7725 288.7682 415.0199 288.7682 414.1012 C 288.7682 413.447 288.5547 412.9149 288.1315 412.5047 C 287.708 412.0946 287.1567 411.891 286.4772 411.891 C 285.6997 411.891 284.9873 412.1385 284.3476 412.6334 L 284.3476 414.1182 C 284.9579 413.3217 285.6634 412.9217 286.4673 412.9217 C 286.8219 412.9217 287.1173 413.0232 287.3534 413.2267 C 287.5864 413.4302 287.7046 413.6876 287.7046 413.9963 C 287.7046 414.4946 287.3568 414.9624 286.6643 415.4066 Z M 295.5813 420.1424 L 296.71 420.1424 L 296.71 411.986 L 295.5813 411.986 L 295.5813 415.5352 L 291.1439 415.5352 L 291.1439 411.986 L 290.0117 411.986 L 290.0117 420.1424 L 291.1439 420.1424 L 291.1439 416.6167 L 295.5813 416.6167 Z M 298.4888 411.986 L 298.4888 420.1424 L 300.4645 420.1424 C 301.2653 420.1424 301.902 419.9389 302.3711 419.5321 C 302.8402 419.1219 303.0735 418.5694 303.0735 417.871 C 303.0735 417.3965 302.9587 416.9863 302.7288 416.6405 C 302.4958 416.2946 302.1678 416.037 301.7378 415.8641 C 301.9904 415.6911 302.2367 415.4573 302.4794 415.1625 C 302.7192 414.8674 303.0605 414.3521 303.4967 413.6165 C 303.7725 413.1522 303.9925 412.8029 304.1563 412.5691 L 304.5767 411.986 L 303.2311 411.986 L 302.8864 412.5217 C 302.8765 412.5419 302.8535 412.5759 302.8175 412.6232 L 302.5979 412.9418 L 302.2466 413.5385 L 301.8691 414.176 C 301.6361 414.5117 301.4195 414.7758 301.2259 414.976 C 301.0323 415.1761 300.8548 415.3184 300.7006 415.4066 C 300.5433 415.4913 300.2805 415.5352 299.9132 415.5352 L 299.6178 415.5352 L 299.6178 411.986 Z M 299.9557 419.1525 L 299.6178 419.1525 L 299.6178 416.5761 L 300.0475 416.5761 C 300.6218 416.5761 301.0158 416.6269 301.2293 416.7286 C 301.4425 416.827 301.6066 416.9795 301.7245 417.1861 C 301.8427 417.3897 301.902 417.6235 301.902 417.8846 C 301.902 418.1389 301.8362 418.3727 301.7049 418.5828 C 301.5703 418.7897 301.3866 418.9388 301.1471 419.0236 C 300.9076 419.1083 300.5104 419.1525 299.9557 419.1525 Z M 305.4461 420.1424 L 309.926 420.1424 L 309.926 419.1049 L 306.5786 419.1049 L 306.5786 416.6167 L 309.8112 416.6167 L 309.8112 415.5727 L 306.5786 415.5727 L 306.5786 413.0368 L 310.0309 413.0368 L 310.0309 411.9962 L 305.4461 411.9962 Z M 311.2353 420.1424 L 315.7149 420.1424 L 315.7149 419.1049 L 312.3677 419.1049 L 312.3677 416.6167 L 315.6004 416.6167 L 315.6004 415.5727 L 312.3677 415.5727 L 312.3677 413.0368 L 315.8201 413.0368 L 315.8201 411.9962 L 311.2353 411.9962 Z M 320.254 420.1424 L 321.3828 420.1424 L 321.3828 412.0911 C 321.3828 411.342 321.3074 410.7858 321.1597 410.4232 C 321.012 410.0638 320.7725 409.7758 320.4411 409.5587 C 320.1094 409.3452 319.7092 409.2367 319.2401 409.2367 C 319.1709 409.2367 319.0462 409.2469 318.8721 409.2707 L 318.6655 410.3555 L 318.9543 410.3555 C 319.2792 410.3555 319.5252 410.396 319.6962 410.4774 C 319.8668 410.5621 320.0012 410.7044 320.1029 410.9114 C 320.2047 411.118 320.254 411.5554 320.254 412.2266 Z M 325.6591 420.1897 L 326.4534 420.1897 L 329.9879 411.986 L 328.8294 411.986 L 327.7757 414.4031 L 324.4184 414.4031 L 323.4243 411.986 L 322.2658 411.986 Z M 327.3131 415.4437 L 326.0432 418.3965 L 324.8617 415.4437 Z M 330.8706 420.1424 L 331.9997 420.1424 L 331.9997 411.986 L 330.8706 411.986 Z M 340.0268 420.1424 L 341.1034 420.1424 L 341.1034 411.986 L 340.1289 411.986 L 334.8485 418.2642 L 334.8485 411.986 L 333.7883 411.986 L 333.7883 420.1424 L 334.7036 420.1424 L 340.0268 413.8132 Z M 348.681 411.986 L 346.0062 411.986 L 346.0062 420.1424 L 348.0769 420.1424 C 348.7303 420.1424 349.2388 420.0508 349.6031 419.8711 C 349.9676 419.6914 350.2463 419.4405 350.4402 419.1253 C 350.6335 418.8067 350.7287 418.4405 350.7287 418.0235 C 350.7287 417.2202 350.3285 416.6473 349.5243 416.3014 C 350.0986 416.1895 350.5581 415.942 350.8994 415.5659 C 351.2409 415.1894 351.4116 414.7353 351.4116 414.2098 C 351.4116 413.7928 351.3098 413.4234 351.1032 413.098 C 350.8963 412.7692 350.591 412.5047 350.1907 412.2978 C 349.7871 412.0911 349.2848 411.986 348.681 411.986 Z M 348.1101 419.1049 L 347.1386 419.1049 L 347.1386 416.6507 L 347.8901 416.6507 C 348.4905 416.6507 348.9205 416.7692 349.1768 417.0064 C 349.4293 417.244 349.5572 417.5524 349.5572 417.9319 C 349.5572 418.7151 349.0747 419.1049 348.1101 419.1049 Z M 348.1954 415.6132 L 347.1386 415.6132 L 347.1386 413.0266 L 348.251 413.0266 C 348.8712 413.0266 349.2913 413.0776 349.5112 413.176 C 349.7312 413.274 349.9053 413.4268 350.0396 413.6369 C 350.1743 413.8472 350.2397 414.0743 350.2397 414.3149 C 350.2397 414.5658 350.1709 414.7929 350.0297 414.9998 C 349.8888 415.2064 349.6884 415.3589 349.4293 415.4607 C 349.17 415.5625 348.7564 415.6132 348.1954 415.6132 Z M 355.0479 420.1897 L 355.8421 420.1897 L 359.3767 411.986 L 358.2179 411.986 L 357.1645 414.4031 L 353.8071 414.4031 L 352.813 411.986 L 351.6542 411.986 Z M 356.7019 415.4437 L 355.4317 418.3965 L 354.2505 415.4437 Z M 364.7126 420.1424 L 366.1274 420.1424 L 362.7011 416.2776 L 366.9673 411.986 L 365.4184 411.986 L 361.3884 416.0166 L 361.3884 411.986 L 360.2594 411.986 L 360.2594 420.1424 L 361.3884 420.1424 L 361.3884 416.4134 Z M 367.8369 420.1424 L 372.3165 420.1424 L 372.3165 419.1049 L 368.9691 419.1049 L 368.9691 416.6167 L 372.2017 416.6167 L 372.2017 415.5727 L 368.9691 415.5727 L 368.9691 413.0368 L 372.4217 413.0368 L 372.4217 411.9962 L 367.8369 411.9962 Z M 373.6621 411.986 L 373.6621 420.1424 L 375.6379 420.1424 C 376.4387 420.1424 377.0753 419.9389 377.5445 419.5321 C 378.0136 419.1219 378.2469 418.5694 378.2469 417.871 C 378.2469 417.3965 378.1321 416.9863 377.9022 416.6405 C 377.6695 416.2946 377.3412 416.037 376.9112 415.8641 C 377.1638 415.6911 377.4101 415.4573 377.6528 415.1625 C 377.8926 414.8674 378.2339 414.3521 378.6701 413.6165 C 378.9459 413.1522 379.1659 412.8029 379.3297 412.5691 L 379.7501 411.986 L 378.4045 411.986 L 378.0598 412.5217 C 378.0499 412.5419 378.0269 412.5759 377.9909 412.6232 L 377.7712 412.9418 L 377.42 413.5385 L 377.0425 414.176 C 376.8094 414.5117 376.5929 414.7758 376.3993 414.976 C 376.2057 415.1761 376.0282 415.3184 375.874 415.4066 C 375.7167 415.4913 375.4539 415.5352 375.0866 415.5352 L 374.7912 415.5352 L 374.7912 411.986 Z M 375.1291 419.1525 L 374.7912 419.1525 L 374.7912 416.5761 L 375.2209 416.5761 C 375.7952 416.5761 376.1892 416.6269 376.4027 416.7286 C 376.6158 416.827 376.78 416.9795 376.8979 417.1861 C 377.0161 417.3897 377.0753 417.6235 377.0753 417.8846 C 377.0753 418.1389 377.0096 418.3727 376.8786 418.5828 C 376.7437 418.7897 376.5603 418.9388 376.3205 419.0236 C 376.0809 419.1083 375.6838 419.1525 375.1291 419.1525 Z M 385.3752 420.1424 L 386.7435 420.1424 L 383.826 416.3014 L 383.826 411.986 L 382.6675 411.986 L 382.6675 416.3014 L 379.7501 420.1424 L 381.1184 420.1424 L 383.2322 417.3287 Z " fill="#ffffff"/>
<path transform="matrix(2.7777777,0,0,-2.7777777,0,2338.5826)" d="M 270.9533 570.1294 L 275.4326 570.1294 L 275.4326 569.0432 L 272.0854 569.0432 L 272.0854 566.4376 L 275.3181 566.4376 L 275.3181 565.3443 L 272.0854 565.3443 L 272.0854 562.6891 L 275.5378 562.6891 L 275.5378 561.5994 L 270.9533 561.5994 Z M 278.6981 565.1705 L 277.8381 565.7349 C 277.3001 566.0898 276.916 566.4413 276.6895 566.7857 C 276.4633 567.1298 276.3485 567.5238 276.3485 567.9711 C 276.3485 568.6458 276.5648 569.1923 276.9948 569.6113 C 277.4248 570.03 277.986 570.2394 278.6751 570.2394 C 279.3348 570.2394 279.942 570.0407 280.4902 569.643 L 280.4902 568.2552 C 279.9221 568.8445 279.3084 569.139 278.6522 569.139 C 278.2845 569.139 277.9826 569.0469 277.7465 568.8621 C 277.5067 568.6775 277.3888 568.4397 277.3888 568.1486 C 277.3888 567.8932 277.4738 567.6517 277.6479 567.428 C 277.8219 567.2044 278.1009 566.9702 278.4912 566.7253 L 279.3546 566.1751 C 280.3195 565.5538 280.8017 564.7657 280.8017 563.8037 C 280.8017 563.1185 280.5883 562.5612 280.165 562.1318 C 279.7415 561.7023 279.1905 561.4892 278.511 561.4892 C 277.7332 561.4892 277.0211 561.7485 276.3811 562.2667 L 276.3811 563.8215 C 276.9914 562.9873 277.6972 562.5683 278.5011 562.5683 C 278.8554 562.5683 279.1508 562.6749 279.3872 562.8878 C 279.6202 563.1009 279.7384 563.3705 279.7384 563.6937 C 279.7384 564.2155 279.3906 564.7054 278.6981 565.1705 Z M 281.3726 570.1436 L 287.9725 570.1436 L 287.9725 569.054 L 285.2189 569.054 L 285.2189 561.5887 L 284.0803 561.5887 L 284.0803 569.054 L 281.3726 569.054 Z M 289.4295 562.9518 C 289.6234 562.9518 289.7872 562.8807 289.9219 562.7387 C 290.0565 562.5969 290.1254 562.4229 290.1254 562.2134 C 290.1254 562.011 290.0597 561.8373 289.9253 561.6986 C 289.7904 561.5603 289.6265 561.4892 289.4295 561.4892 C 289.2359 561.4892 289.0749 561.5603 288.9437 561.6986 C 288.8124 561.8373 288.7469 562.011 288.7469 562.2134 C 288.7469 562.4229 288.8124 562.5969 288.9437 562.7387 C 289.0749 562.8807 289.2359 562.9518 289.4295 562.9518 Z M 296.2621 570.1294 L 297.3943 570.1294 L 297.3943 561.5887 L 296.2621 561.5887 Z M 301.8773 561.4892 L 301.1814 562.3767 C 301.7656 562.7778 302.2775 563.2605 302.7138 563.832 C 303.1506 564.4001 303.4429 564.9823 303.5903 565.5821 C 303.2325 565.3409 302.8124 565.2201 302.33 565.2201 C 301.7262 565.2201 301.2075 565.4614 300.7777 565.9478 C 300.3446 566.4342 300.1277 567.0164 300.1277 567.6979 C 300.1277 568.4077 300.3576 569.0078 300.8205 569.5013 C 301.28 569.9945 301.841 570.2394 302.504 570.2394 C 303.249 570.2394 303.8593 569.9483 304.3352 569.3664 C 304.8111 568.7841 305.0473 568.0352 305.0473 567.1227 C 305.0473 566.0864 304.7488 565.039 304.1546 563.9811 C 303.5608 562.9235 302.7994 562.0927 301.8773 561.4892 Z M 303.8102 566.7999 C 303.8559 567.1227 303.8791 567.3359 303.8791 567.4351 C 303.8791 567.9286 303.7513 568.3297 303.4984 568.6458 C 303.2425 568.9582 302.9142 569.1144 302.514 569.1144 C 302.1497 569.1144 301.8475 568.9828 301.608 568.7167 C 301.3685 568.4505 301.2503 568.1132 301.2503 567.7084 C 301.2503 567.3393 301.3815 567.0198 301.6409 566.75 C 301.9003 566.4804 302.2087 566.3455 302.5729 566.3455 C 302.9961 566.3455 303.4066 566.498 303.8102 566.7999 Z M 307.6662 561.4892 L 306.9703 562.3767 C 307.5545 562.7778 308.0667 563.2605 308.503 563.832 C 308.9395 564.4001 309.2318 564.9823 309.3792 565.5821 C 309.0214 565.3409 308.6014 565.2201 308.1189 565.2201 C 307.5151 565.2201 306.9967 565.4614 306.5669 565.9478 C 306.1335 566.4342 305.9169 567.0164 305.9169 567.6979 C 305.9169 568.4077 306.1468 569.0078 306.6094 569.5013 C 307.0689 569.9945 307.6299 570.2394 308.2929 570.2394 C 309.0382 570.2394 309.6485 569.9483 310.1244 569.3664 C 310.6003 568.7841 310.8365 568.0352 310.8365 567.1227 C 310.8365 566.0864 310.538 565.039 309.9438 563.9811 C 309.3497 562.9235 308.5883 562.0927 307.6662 561.4892 Z M 309.5991 566.7999 C 309.6451 567.1227 309.668 567.3359 309.668 567.4351 C 309.668 567.9286 309.5402 568.3297 309.2873 568.6458 C 309.0317 568.9582 308.7031 569.1144 308.3029 569.1144 C 307.9386 569.1144 307.6364 568.9828 307.3969 568.7167 C 307.1574 568.4505 307.0392 568.1132 307.0392 567.7084 C 307.0392 567.3393 307.1707 567.0198 307.4298 566.75 C 307.6892 566.4804 307.9976 566.3455 308.3618 566.3455 C 308.7853 566.3455 309.1955 566.498 309.5991 566.7999 Z M 314.8432 570.1544 L 314.9583 570.2394 L 315.6409 569.306 C 315.0405 568.8836 314.5382 568.4255 314.1411 567.9286 C 313.744 567.4317 313.4356 566.8458 313.2221 566.1751 C 313.6388 566.4059 314.0558 566.5229 314.4725 566.5229 C 315.0927 566.5229 315.618 566.2851 316.0446 565.8094 C 316.4678 565.3301 316.6812 564.7445 316.6812 564.0523 C 316.6812 563.3388 316.4516 562.7353 315.9887 562.2384 C 315.5261 561.7378 314.9614 561.4892 314.2953 561.4892 C 313.5538 561.4892 312.9531 561.7732 312.4967 562.3376 C 312.0375 562.902 311.8079 563.6404 311.8079 564.5529 C 311.8079 565.238 311.9258 565.9228 312.1622 566.6009 C 312.3986 567.2789 312.7397 567.9145 313.183 568.5072 C 313.6258 569.0999 314.1771 569.6504 314.8432 570.1544 Z M 312.9792 564.9077 C 312.95 564.7161 312.9335 564.503 312.9335 564.2651 C 312.9335 563.7861 313.0614 563.3884 313.3208 563.0797 C 313.5798 562.7707 313.9115 562.6145 314.3151 562.6145 C 314.676 562.6145 314.9748 562.7458 315.2109 563.0122 C 315.4439 563.2784 315.5621 563.612 315.5621 564.0168 C 315.5621 564.4284 315.4374 564.762 315.1879 565.0177 C 314.9354 565.2697 314.6037 565.3976 314.1935 565.3976 C 313.9835 565.3976 313.7933 565.3621 313.6226 565.2947 C 313.4486 565.2272 313.2354 565.096 312.9792 564.9077 " fill="#ffffff"/>
<path transform="matrix(2.7777777,0,0,-2.7777777,0,2338.5826)" d="M 241.8837 561.0674 L 236.0035 555.1294 C 234.9235 554.0383 233.1726 554.0383 232.0917 555.1294 C 231.0117 556.2193 231.0117 557.9884 232.0917 559.0783 L 237.9728 565.0163 C 239.0528 566.1074 240.8037 566.1074 241.8837 565.0163 C 242.9637 563.9264 242.9637 562.1573 241.8837 561.0674 " fill="#ffffff"/>
<path transform="matrix(2.7777777,0,0,-2.7777777,0,2338.5826)" d="M 389.1912 518.0757 L 393.6535 518.0757 L 393.6535 517.3946 L 391.7917 517.3946 L 391.7917 512.7279 L 391.0218 512.7279 L 391.0218 517.3946 L 389.1912 517.3946 Z M 398.6263 518.0669 L 399.3364 518.0669 L 399.3364 512.7279 L 398.5688 512.7279 L 398.5688 516.8818 L 396.9244 514.8181 L 396.7824 514.8181 L 395.1247 516.8818 L 395.1247 512.7279 L 394.3593 512.7279 L 394.3593 518.0669 L 395.0782 518.0669 L 396.8555 515.8743 Z " fill="#ffffff"/>
</g>
</g>
</svg>
